HIERARCHY
ROOT Hips
{
  OFFSET -102.467 93.6631 130.069
  CHANNELS 6 Xposition Yposition Zposition Zrotation Xrotation Yrotation
  JOINT LeftUpLeg
  {
    OFFSET 8.64259 1.95398 -2.38835
    CHANNELS 3 Zrotation Xrotation Yrotation
    JOINT LeftLeg
    {
      OFFSET 43.7702 0 0
      CHANNELS 3 Zrotation Xrotation Yrotation
      JOINT LeftFoot
      {
        OFFSET 40.6238 0 0
        CHANNELS 3 Zrotation Xrotation Yrotation
        JOINT LeftToeBase
        {
          OFFSET 12.7242 0 0
          CHANNELS 3 Zrotation Xrotation Yrotation
          End Site
          {
            OFFSET 0 0 0
          }
        }
      }
    }
  }
  JOINT RightUpLeg
  {
    OFFSET -8.2249 1.95398 -2.59336
    CHANNELS 3 Zrotation Xrotation Yrotation
    JOINT RightLeg
    {
      OFFSET 43.5653 0 0
      CHANNELS 3 Zrotation Xrotation Yrotation
      JOINT RightFoot
      {
        OFFSET 40.6238 0 0
        CHANNELS 3 Zrotation Xrotation Yrotation
        JOINT RightToeBase
        {
          OFFSET 12.7242 0 0
          CHANNELS 3 Zrotation Xrotation Yrotation
          End Site
          {
            OFFSET 0 0 0
          }
        }
      }
    }
  }
  JOINT Spine
  {
    OFFSET 0.165834 0.87714 6.61349
    CHANNELS 3 Zrotation Xrotation Yrotation
    JOINT Spine1
    {
      OFFSET 7.38963 1.71661e-005 0
      CHANNELS 3 Zrotation Xrotation Yrotation
      JOINT Spine2
      {
        OFFSET 11.9445 1.14441e-005 0
        CHANNELS 3 Zrotation Xrotation Yrotation
        JOINT Spine3
        {
          OFFSET 14.7254 4.19617e-005 0
          CHANNELS 3 Zrotation Xrotation Yrotation
          JOINT Spine4
          {
            OFFSET 10.9679 0 0
            CHANNELS 3 Zrotation Xrotation Yrotation
            JOINT RightShoulder
            {
              OFFSET 2.46616 -1.6653 3.69651
              CHANNELS 3 Zrotation Xrotation Yrotation
              JOINT RightArm
              {
                OFFSET 13.0012 0 0
                CHANNELS 3 Zrotation Xrotation Yrotation
                JOINT RightForeArm
                {
                  OFFSET 28.7848 1.52588e-005 0
                  CHANNELS 3 Zrotation Xrotation Yrotation
                  JOINT RightHand
                  {
                    OFFSET 26.5688 1.52588e-005 0
                    CHANNELS 3 Zrotation Xrotation Yrotation
                    End Site
                    {
                      OFFSET 0 0 0
                    }
                  }
                }
              }
            }
            JOINT LeftShoulder
            {
              OFFSET 2.38034 -1.29275 -3.7523
              CHANNELS 3 Zrotation Xrotation Yrotation
              JOINT LeftArm
              {
                OFFSET 16.3182 6.10351e-005 0
                CHANNELS 3 Zrotation Xrotation Yrotation
                JOINT LeftForeArm
                {
                  OFFSET 27.0901 0 0
                  CHANNELS 3 Zrotation Xrotation Yrotation
                  JOINT LeftHand
                  {
                    OFFSET 24.5451 1.52588e-005 0
                    CHANNELS 3 Zrotation Xrotation Yrotation
                    End Site
                    {
                      OFFSET 0 0 0
                    }
                  }
                }
              }
            }
            JOINT Neck
            {
              OFFSET 5.0226 -0.0266342 0
              CHANNELS 3 Zrotation Xrotation Yrotation
              JOINT Head
              {
                OFFSET 6.69363 2.86102e-005 0
                CHANNELS 3 Zrotation Xrotation Yrotation
                End Site
                {
                  OFFSET 0 0 0
                }
              }
            }
          }
        }
      }
    }
  }
}
MOTION
Frames:	17
Frame Time:	0.0416667
-23.5598 90.2037 27.6044 94.8486 53.2729 85.835 177.962 40.1562 86.7133 -68.477 18.4497 2.68526 48.61 -3.92967 4.54588 46.7012 -0.49659 7.10003 172.226 21.0885 90.7567 -59.116 -14.035 1.19326 63.7229 1.35026 5.73398 59.4315 -2.71905 10.9855 0.155952 10.505 -90.0048 5.86255 0.309539 -0.0186879 -5.80836 0.308428 -0.0323094 -28.3438 0.300858 0.0752072 -8.33114 0.300858 0.0752042 99.9829 -49.7613 -85.5845 24.2842 -13.9763 -6.67002 -6.94528 1.61963 -52.5241 -8.9801 0.108921 -6.90214 -92.2615 -58.3131 77.0204 -10.0642 7.39161 -1.54595 0.290805 3.75959 -21.4418 6.7132 -0.437026 -8.78654 22.5325 10.8375 -10.9289 -25.5111 9.03463 27.211 
-37.5913 89.9163 42.8538 92.1569 57.7457 90.0727 174.346 34.9942 93.016 -89.3839 16.2908 3.92814 48.8232 -0.892255 12.4035 44.8133 -0.810019 5.13133 171.17 32.7375 92.8034 -52.9592 -15.352 4.3397 64.4371 -4.16584 -5.36988 43.2065 -2.34213 3.86524 -0.256229 10.3177 -90.2701 6.23687 -0.625956 -0.510872 -5.43402 -0.647831 -0.482829 -27.9691 -0.44348 -0.675383 -7.95641 -0.443479 -0.675378 98.948 -52.1715 -87.0564 27.276 -13.1115 0.0544293 -13.3766 -9.75641 -41.5172 -11.1993 -0.293645 -2.2162 -91.401 -57.2662 77.9808 -4.52694 2.49667 -15.5961 2.01943 0.0674126 -30.0593 12.265 -0.793582 -9.83989 21.9605 16.5367 -14.0502 -33.0413 11.6969 35.0643 
-53.1705 94.0119 57.9522 85.8719 57.3246 93.3647 175.243 25.1443 90.8399 -75.8415 18.9659 4.89001 52.3912 0.188932 10.405 47.0896 -2.03643 0.404262 176.868 34.6828 85.455 -24.448 -13.0271 2.31224 47.9719 12.9094 15.0355 20.673 1.94802 1.96531 -0.506419 10.2589 -89.8223 6.36038 -0.936319 0.379752 -5.31033 -0.918665 0.420582 -27.8482 -1.00716 0.080772 -7.83554 -1.00716 0.0807641 98.4173 -50.8001 -87.9635 33.7015 -17.6603 5.81226 -5.47856 -1.68684 -37.2368 -6.45878 0.00185365 -5.47161 -91.4913 -56.9443 77.7888 1.48345 -0.978537 -22.3888 8.19673 -1.27001 -55.1728 12.4704 -0.840926 -10.146 26.7981 23.8072 -17.0535 -43.2215 13.9563 44.0809 
-68.6507 94.3646 71.9468 83.4393 50.3317 94.7843 178.189 19.6829 87.9227 -57.2913 23.7296 4.40029 52.5054 -2.77159 3.99416 54.4283 -4.28527 -3.20269 174.309 39.1107 85.495 -39.7788 -14.8977 2.03534 45.5771 12.5487 14.0294 42.7548 -3.67081 -1.1081 0.142967 10.1296 -89.5527 6.60991 0.475941 0.863679 -5.06124 0.513486 0.841894 -27.5938 0.194387 0.966778 -7.58116 0.19439 0.966775 96.9589 -47.4178 -90.5469 34.7174 -19.6008 3.01027 -2.78584 0.445804 -34.6731 -8.41547 0.0407265 -6.16305 -91.2447 -57.8298 78.3131 2.37927 0.137323 -20.905 11.0538 -2.42263 -69.7605 17.1883 -0.787765 -8.40531 24.0793 31.3606 -15.2416 -47.9448 16.2431 50.1426 
-83.8323 89.877 85.6428 86.8109 47.5554 93.7544 178.215 25.174 85.832 -57.9651 27.6283 4.28574 61.5154 8.35192 18.3164 60.155 -2.2923 4.49846 173.169 37.7277 85.4382 -83.0547 -18.5871 -1.57532 48.9831 9.74949 12.3018 43.0331 -1.98243 5.03335 0.595352 9.91795 -89.746 7.03493 1.29804 0.445015 -4.6354 1.31637 0.38744 -27.1742 1.10428 0.814595 -7.16151 1.10427 0.81458 97.1336 -43.2032 -90.7293 34.5091 -15.6706 -0.769216 -1.44346 2.95707 -38.2737 -10.0532 -0.0924337 -4.30867 -91.0106 -61.6114 79.3601 -2.96422 2.47515 -13.5094 8.58019 0.892392 -48.5351 13.4789 -0.886768 -10.2866 14.964 36.0516 -12.0236 -48.3553 16.9833 55.1845 
-97.8015 89.3469 98.7598 88.9051 46.3791 90.7943 176.744 31.9468 83.5659 -49.5757 26.5426 4.25265 59.2487 8.34304 25.2856 50.8445 -1.90751 2.66704 176.647 21.1227 85.2283 -85.5875 -27.5808 -3.10494 50.248 8.69768 10.3007 55.0477 -3.19993 8.05068 1.09902 9.87636 -89.5813 7.11331 2.37486 0.719839 -4.55561 2.40425 0.614553 -27.1029 2.04871 1.40053 -7.09026 2.04872 1.40052 97.7448 -41.7938 -89.8313 32.3666 -17.5998 -4.69815 -1.4917 3.3229 -40.3649 -10.6124 0.047517 -5.94813 -92.651 -66.8884 78.2571 -2.58786 6.82667 -3.28886 1.98724 6.15662 -25.2614 10.9008 -0.500345 -7.89098 9.80683 35.8646 -7.40877 -46.3231 17.1487 53.724 
-111.811 92.6273 114.99 81.6229 52.3521 95.5129 175.965 37.5164 86.9632 -23.9506 29.6279 3.209 41.4178 -11.3345 -2.91961 46.7938 0.0527731 9.43811 175.987 13.3138 91.6589 -60.5455 -19.4479 -1.02697 54.8868 8.19776 15.597 48.3851 -2.81987 5.5264 0.933772 9.70009 -89.4793 7.4671 2.09007 0.925058 -4.20243 2.12878 0.832132 -26.7449 1.71546 1.51053 -6.73223 1.71544 1.51053 98.481 -43.358 -88.4244 29.7902 -22.0736 -5.50903 -3.03107 3.27686 -43.5749 -7.44593 0.183065 -8.57114 -92.3038 -64.9227 78.3161 -6.68173 6.67928 4.03482 -1.06362 2.32973 -18.4062 8.58197 -0.424359 -7.84523 13.653 33.5625 -7.72104 -46.7254 15.8523 50.8281 
-126.218 90.889 130.054 84.3861 60.6823 92.3858 174.465 42.4203 85.5833 -50.6934 23.3622 3.29766 46.6947 -7.06855 -0.925555 55.8904 0.0303643 10.5243 174.235 11.6612 93.945 -49.8993 -10.6755 1.32248 61.8828 7.96171 20.5791 32.827 0.228069 7.52813 0.65416 10.0857 -89.7488 6.69622 1.41361 0.439321 -4.97405 1.43158 0.376661 -27.5132 1.21622 0.843906 -7.50048 1.21621 0.843903 99.408 -44.3251 -86.7916 30.5506 -21.9813 -1.4903 -3.74917 2.43337 -43.3593 -6.94278 0.153393 -8.39265 -93.1603 -62.4103 76.6918 -6.79468 6.1494 2.92987 0.896673 4.06858 -22.0882 7.90633 -0.497447 -8.94024 14.1831 28.9359 -10.6353 -43.9895 13.9319 48.5255 
-140.534 88.3101 145.116 84.5436 63.1487 93.9024 171.209 41.8686 91.5008 -83.7406 17.1193 3.94916 49.6723 -1.38321 9.65708 50.1826 0.0969848 10.197 173.435 25.7342 96.0379 -57.0582 -13.2461 2.50951 71.3514 -1.61648 6.55944 38.3268 -0.50762 7.70405 0.598726 10.0645 -90.2104 6.75191 1.10587 -0.450168 -4.91854 1.08498 -0.498425 -27.4584 1.19004 -0.0969454 -7.44578 1.19004 -0.0969556 99.1687 -45.8954 -87.0904 32.661 -16.1965 -1.18072 -3.32772 -2.58078 -29.3516 -8.42033 -0.0188988 -5.25261 -92.5378 -62.0504 77.4373 -2.25087 5.14735 -5.58664 2.2495 3.33161 -27.8294 9.34897 -0.6398 -9.70613 13.4541 23.2982 -7.00198 -35.2597 13.25 41.3311 
-154.026 90.7054 160.43 84.0281 67.8608 95.5766 169.241 29.3976 94.8856 -83.6254 20.0146 5.57031 47.488 -2.15458 11.8326 43.5185 -0.0325118 8.61403 175.057 34.1528 93.7419 -46.8385 -12.3681 2.70412 64.2385 2.05579 4.72098 27.727 0.771728 3.44153 -0.148068 10.1898 -90.308 6.49274 -0.426538 -0.590881 -5.17827 -0.452144 -0.571532 -27.7126 -0.22926 -0.691758 -7.6999 -0.229243 -0.691753 98.79 -48.8335 -87.511 33.7625 -14.7585 -1.90908 -1.78362 -5.31233 -19.1193 -6.33167 -0.0421798 -4.79619 -91.9303 -59.2066 77.6591 -0.960429 2.02862 -13.549 4.22986 -0.049923 -40.5177 10.349 -0.575646 -8.71971 12.8956 14.9795 -4.06194 -25.3876 10.5797 27.4454 
-168.166 95.2617 174.694 72.0044 64.822 106.069 174.41 21.5908 92.4044 -61.0916 22.2789 6.7208 50.3233 -2.53778 6.66599 46.7491 -1.57549 2.37101 178.674 35.2331 87.0706 -22.0494 -14.978 1.11008 47.0775 13.6834 17.0201 29.8147 -0.816288 -3.40263 -0.263189 10.0466 -90.0618 6.78074 -0.552034 -0.100672 -4.89012 -0.555908 -0.0762865 -27.4259 -0.496254 -0.261936 -7.41329 -0.496247 -0.261937 97.7462 -49.6032 -89.0956 30.5209 -18.9679 -1.61021 -0.456019 -1.25443 -21.8075 -4.98849 0.11276 -8.7067 -91.4239 -57.9508 78.0902 3.80485 1.18988 -17.9967 11.1775 -2.31223 -63.9205 12.5102 -0.625137 -8.46045 19.3594 7.6319 -0.204553 -19.4087 5.82977 12.2264 
-181.973 94.0926 188.805 73.8301 59.9229 106.94 175.601 18.5727 91.1069 -48.295 23.3738 7.57567 54.2059 -1.22784 5.1188 55.0479 -2.12061 2.64349 171.29 40.3422 90.0427 -57.2698 -11.5019 1.86426 51.2849 9.43581 12.3059 37.1277 -2.20629 -0.615365 -0.0868632 9.93487 -90.0224 7.00453 -0.183041 -0.036625 -4.6664 -0.184469 -0.0285391 -27.2017 -0.16356 -0.0899439 -7.18908 -0.163573 -0.0899459 97.7285 -48.6598 -89.2014 24.6951 -18.2294 -5.65357 -0.769204 -0.59144 -24.2943 -6.72847 0.0736056 -7.01409 -90.105 -56.5088 79.6302 4.479 -0.976305 -12.2637 11.7783 -3.65951 -73.7546 14.2703 -0.626931 -7.98839 18.589 3.55069 -3.45057 -15.783 3.48208 9.73078 
-195.688 89.6159 202.545 78.6554 58.2396 104.453 175.202 28.0209 89.3849 -53.9224 25.6416 6.5861 60.0186 6.82891 17.7516 61.8662 -1.49024 6.97736 170.096 35.1022 89.9437 -92.7157 -17.9522 -1.81455 50.812 8.42556 11.2783 43.6272 -1.73074 6.62125 -0.019058 9.97436 -90.0891 6.92247 -0.076143 -0.173375 -4.74846 -0.0836909 -0.169868 -27.2836 -0.020521 -0.18825 -7.27091 -0.0205176 -0.188243 98.4943 -47.8431 -88.0515 21.8073 -7.79443 -7.18967 -6.70298 -2.98283 -37.9965 -7.91036 0.0121282 -5.69702 -90.7076 -57.2843 78.946 -0.648271 -4.40037 -4.06733 10.143 1.35032 -48.3976 12.79 -0.968592 -10.9524 22.1434 2.31159 -5.15999 -16.5383 3.04928 8.27256 
-208.914 89.2879 215.337 83.3973 50.9682 98.2559 178.894 33.2332 86.7368 -43.6529 24.8649 3.25807 58.0204 6.27026 23.3741 47.2201 -1.78928 1.65623 176.577 22.6131 87.5375 -89.5415 -24.6857 -3.09491 48.0053 10.2963 13.023 63.8209 2.48715 22.7633 0.571981 10.0866 -89.5899 6.6957 1.31737 0.756371 -4.97476 1.34939 0.697638 -27.5117 1.02918 1.11734 -7.49908 1.02916 1.11732 99.0244 -48.4575 -87.1635 18.6702 -3.75757 -13.177 -5.2777 0.415693 -47.2078 -10.9602 -0.0367407 -4.98795 -90.3359 -61.0662 80.1581 -4.21416 2.97329 5.28109 4.14412 5.63898 -27.2292 10.4319 -0.464779 -7.70426 20.8011 1.069 -5.46561 -16.4298 2.01727 7.09804 
-221.579 91.8314 230.89 73.2902 57.395 106.603 176.756 39.4922 88.7482 -24.1051 25.4484 2.54586 41.316 -11.4518 -5.02328 52.3802 -0.0426953 9.972 173.133 18.251 93.6673 -58.9473 -19.5787 0.994285 52.2825 9.14781 14.6268 52.2473 -1.04753 12.1673 0.313385 9.99988 -89.9157 6.87486 0.662059 0.134319 -4.79595 0.667343 0.105046 -27.332 0.591088 0.327102 -7.3194 0.591099 0.327096 99.8637 -48.813 -85.8167 16.0273 -4.43295 -12.8973 -2.57259 3.84741 -56.2854 -9.9392 0.22645 -8.47068 -92.3948 -59.1477 77.0181 -12.2677 5.88428 6.51761 3.43915 9.91066 -21.7889 5.03931 -0.366061 -8.58843 22.7943 -1.91185 -4.35379 -16.2315 -0.669788 2.9206 
-233.768 88.7599 245.149 79.7991 65.6672 98.9245 174.52 43.0424 86.7964 -61.0694 20.1981 3.42632 47.2387 -6.56762 -2.1338 57.8951 0.159991 11.1255 174.689 15.6313 95.1992 -48.502 -11.9644 1.74011 63.8475 6.63019 18.7926 36.4409 -1.28876 2.8388 0.116581 10.3455 -89.9996 6.18332 0.233222 -0.00703729 -5.48762 0.23269 -0.0173047 -28.0229 0.224555 0.0633723 -8.01028 0.224557 0.0633785 101.314 -52.2666 -83.4518 15.7747 -7.58543 -3.92797 -3.30863 4.49872 -63.3488 -7.04033 0.189473 -9.21601 -94.0891 -57.4119 74.3135 -10.4165 8.8845 -0.447422 4.8095 13.2642 -24.3858 5.73855 -0.385402 -8.63188 13.4294 -4.96619 -9.41506 -8.75736 -2.70868 4.81656 
-246.244 85.5525 259.639 79.1937 68.174 102.405 167.954 40.4314 97.0477 -91.8993 16.2996 4.10238 48.824 -1.90118 8.5982 50.3531 -0.352106 8.30176 173.943 30.7236 97.6387 -58.6666 -11.7087 2.15995 71.6609 -1.53321 6.74627 41.3997 -1.93893 3.99301 0.167015 9.90109 -90.2737 7.07536 0.215593 -0.539671 -4.59564 0.191629 -0.548643 -27.1307 0.367821 -0.449938 -7.11811 0.367826 -0.449927 101.052 -60.7371 -83.6961 16.409 -11.0807 3.89218 -8.47107 0.723825 -56.0475 -10.9402 -0.264041 -2.50913 -97.5508 -56.4756 69.3157 -5.36012 6.36255 -8.75826 5.09326 8.94864 -28.3468 8.85023 -0.325134 -6.76337 3.08655 -5.70759 -18.2736 -0.14066 -2.23658 11.4517 
